<svg xmlns="http://www.w3.org/2000/svg" viewBox="0 0 24 24"><rect width="24" height="24" rx="6" fill="#fffc00"/><g transform="translate(2.4 2.4) scale(0.8)"><path d="M12 3.2c2.7 0 4.1 1.9 4.1 4.4 0 .9-.1 1.6-.1 2 .5.3 1.2.2 1.7-.1.5.7.2 1.4-.4 1.7-.6.3-1.3.4-1.3.9 0 1 2.1 3.1 3.7 3.5.3.5-.1 1-.9 1.2-.6.2-1.3.2-1.5.5-.1.3-.1.7-.4.9-.5.2-1.7-.2-2.8 0-1 .2-1.7 1.5-3 1.5h-.6c-1.3 0-2-1.3-3-1.5-1.1-.2-2.3.2-2.8 0-.3-.2-.3-.6-.4-.9-.2-.3-.9-.3-1.5-.5-.8-.2-1.2-.7-.9-1.2 1.6-.4 3.7-2.5 3.7-3.5 0-.5-.7-.6-1.3-.9-.6-.3-.9-1-.4-1.7.5.3 1.2.4 1.7.1 0-.4-.1-1.1-.1-2 0-2.5 1.4-4.4 4.1-4.4z" fill="#fff"/></g></svg>
